<?xml version="1.0" standalone="no"?>
<!DOCTYPE svg PUBLIC "-//W3C//DTD SVG 20010904//EN"
 "http://www.w3.org/TR/2001/REC-SVG-20010904/DTD/svg10.dtd">
<svg version="1.0" xmlns="http://www.w3.org/2000/svg"
 width="920.000000pt" height="920.000000pt" viewBox="0 0 920.000000 920.000000"
 preserveAspectRatio="xMidYMid meet">
<metadata>
Created by potrace 1.11, written by Peter Selinger 2001-2013
</metadata>
<g transform="translate(0.000000,920.000000) scale(0.100000,-0.100000)"
fill="#000000" stroke="none">
<path d="M4370 8840 l0 -30 110 0 c61 0 110 -2 110 -5 0 -3 -47 -76 -105 -163
-58 -86 -105 -167 -105 -179 0 -23 1 -23 155 -23 l155 0 0 29 c0 16 -6 31 -12
33 -7 3 -50 4 -95 3 -45 -1 -87 1 -92 4 -5 3 38 73 96 155 104 148 127 188
116 200 -4 3 -80 6 -170 6 l-163 0 0 -30z"/>
<path d="M4790 8735 l72 -135 -4 -83 -3 -82 36 -3 36 -3 7 82 8 82 89 119 c50
65 88 122 85 126 -2 4 -20 9 -39 10 -38 3 -52 -11 -127 -125 -19 -29 -37 -53
-40 -53 -4 0 -24 37 -45 83 -52 108 -60 117 -107 117 l-39 0 71 -135z"/>
<path d="M4010 8836 c-64 -9 -75 -14 -78 -32 -2 -17 20 -174 54 -375 l6 -35
92 13 c117 17 147 27 185 63 145 139 49 386 -149 379 -19 -1 -69 -7 -110 -13z
m180 -71 c41 -21 63 -69 64 -135 0 -99 -37 -139 -145 -155 -55 -8 -48 -23 -75
169 -14 100 -14 120 -3 127 23 14 128 10 159 -6z"/>
<path d="M5176 8808 c-16 -71 -57 -381 -52 -394 3 -8 18 -14 34 -14 l29 0 18
128 c10 70 21 132 24 139 3 7 43 -59 88 -145 78 -151 113 -196 136 -173 9 9
102 410 96 415 -2 2 -18 7 -35 10 l-31 7 -28 -128 c-15 -70 -31 -134 -35 -142
-5 -10 -30 29 -76 118 -93 178 -104 195 -136 199 -22 3 -28 -2 -32 -20z"/>
<path d="M3702 8780 c-68 -15 -126 -31 -130 -34 -6 -7 84 -383 97 -405 6 -9
29 -7 88 7 l80 19 -5 -43 c-4 -40 -3 -43 22 -50 15 -3 38 -2 52 5 32 14 32 41
0 41 -14 0 -27 3 -29 8 -9 14 12 52 29 52 13 0 15 6 9 27 -4 16 -9 30 -11 33
-3 2 -41 -4 -85 -13 -45 -9 -85 -15 -89 -12 -4 3 -11 22 -14 42 -4 21 -9 46
-12 55 -4 13 6 19 53 28 92 18 90 17 85 50 -2 17 -6 30 -8 30 -1 0 -32 -7 -69
-15 -36 -9 -70 -13 -74 -11 -5 3 -11 23 -15 45 -3 22 -8 46 -12 54 -4 12 15
18 91 33 l96 18 -3 30 c-2 16 -7 30 -13 32 -5 1 -65 -11 -133 -26z"/>
<path d="M3409 8707 l-27 -12 61 -203 61 -204 30 6 c17 4 33 10 37 14 11 13
-105 407 -121 409 -8 1 -27 -3 -41 -10z"/>
<path d="M5635 8523 c-75 -101 -135 -186 -132 -189 2 -3 20 -7 39 -10 31 -6
36 -3 61 35 15 23 35 41 44 41 9 0 47 -10 85 -22 l68 -22 0 -45 c0 -55 7 -66
42 -80 26 -10 45 -1 35 17 -3 4 -8 86 -12 182 -7 186 -12 240 -24 253 -4 4
-21 11 -38 16 -30 9 -31 9 -168 -176z m162 -99 c-8 -8 -118 30 -115 40 2 6 26
43 53 82 l50 71 8 -95 c4 -52 6 -96 4 -98z"/>
<path d="M3243 8656 c-17 -6 -34 -14 -38 -17 -7 -8 -45 -250 -45 -290 0 -16
-2 -29 -5 -29 -3 0 -53 41 -113 91 -59 50 -117 96 -129 102 -25 11 -83 -7 -83
-27 0 -14 158 -368 170 -379 6 -7 40 4 58 18 1 1 -22 60 -53 131 -30 71 -54
131 -53 135 2 4 48 -31 103 -77 139 -116 148 -114 170 36 28 196 22 193 75 35
46 -137 48 -140 75 -138 15 1 30 5 33 8 6 5 -116 395 -127 406 -3 4 -20 1 -38
-5z"/>
<path d="M6050 8554 c-11 -26 -20 -49 -20 -52 0 -3 -25 -71 -56 -150 -59 -153
-59 -154 -6 -168 28 -8 22 -15 56 74 43 111 76 94 96 -48 l13 -91 39 -20 c36
-18 38 -18 38 -2 -1 32 -27 179 -34 191 -5 8 0 12 14 12 39 0 89 29 110 62 34
57 23 114 -32 157 -30 24 -159 81 -182 81 -8 0 -24 -21 -36 -46z m135 -57 c53
-30 66 -67 38 -105 -11 -15 -31 -29 -44 -30 -31 -5 -99 16 -99 30 0 22 45 128
55 128 6 0 28 -10 50 -23z"/>
<path d="M6485 8393 c-81 -16 -121 -46 -159 -117 -30 -56 -35 -145 -12 -199
15 -38 76 -94 122 -113 105 -44 225 8 278 121 42 87 31 168 -31 230 -58 58
-139 89 -198 78z m112 -94 c62 -39 79 -108 44 -177 -55 -107 -145 -132 -225
-62 -47 42 -55 91 -25 159 30 71 68 101 126 101 29 0 58 -8 80 -21z"/>
<path d="M2448 8302 c-16 -10 -28 -21 -28 -25 0 -10 196 -346 209 -360 7 -7
183 81 205 103 5 5 2 20 -8 35 l-17 26 -63 -36 c-35 -19 -68 -35 -73 -35 -6 0
-50 70 -98 155 -49 85 -91 155 -94 154 -3 0 -18 -8 -33 -17z"/>
<path d="M2227 8162 c-64 -42 -117 -80 -117 -84 0 -5 232 -333 245 -346 4 -4
201 124 208 135 3 5 -2 19 -12 31 l-17 23 -69 -45 c-39 -25 -73 -46 -77 -46
-9 0 -68 79 -68 91 0 5 27 26 60 46 l59 38 -17 27 -18 27 -62 -41 -63 -41 -17
24 c-9 13 -24 35 -34 50 l-16 27 75 47 c41 26 77 54 80 61 2 7 -2 22 -9 33
-14 19 -18 17 -131 -57z"/>
<path d="M6819 8118 c-29 -46 -77 -120 -106 -165 -30 -46 -56 -89 -59 -97 -4
-10 22 -33 81 -72 75 -51 94 -58 145 -62 74 -5 120 10 165 55 57 57 78 106 73
174 -6 79 -40 125 -143 194 -46 30 -87 55 -93 55 -5 0 -33 -37 -63 -82z m205
-101 c41 -55 18 -140 -55 -199 -57 -46 -122 -39 -199 21 l-24 19 83 126 84
126 45 -33 c25 -17 54 -45 66 -60z"/>
<path d="M1943 7936 c-44 -14 -62 -27 -155 -107 l-58 -51 32 -37 c17 -20 70
-79 118 -131 48 -52 99 -108 112 -125 l26 -29 68 58 c38 33 79 73 92 90 53 72
53 161 0 241 -57 86 -145 120 -235 91z m84 -66 c16 0 81 -57 95 -84 6 -11 15
-36 19 -56 10 -44 -17 -102 -68 -145 l-36 -29 -44 48 c-24 26 -69 77 -100 112
l-56 65 28 29 c36 38 104 72 130 65 11 -2 25 -5 32 -5z"/>
<path d="M7205 7846 c-116 -50 -175 -193 -126 -302 23 -51 93 -111 145 -125
87 -23 201 28 249 113 36 62 41 99 23 161 -35 121 -184 200 -291 153z m166
-88 c31 -23 59 -74 59 -107 0 -88 -115 -183 -194 -160 -41 12 -95 66 -102 104
-11 60 45 151 111 181 37 17 88 10 126 -18z"/>
<path d="M4440 7769 c-495 -18 -1015 -174 -1454 -434 -237 -140 -406 -273
-627 -494 -292 -293 -461 -531 -634 -895 -149 -315 -244 -657 -285 -1024 -13
-121 -13 -523 0 -643 67 -606 282 -1142 652 -1627 116 -152 433 -465 588 -581
344 -257 738 -447 1128 -546 312 -79 502 -99 869 -92 242 4 297 8 428 31 476
84 873 240 1242 486 200 133 334 243 497 406 351 351 606 761 765 1230 59 175
90 299 128 514 27 149 28 167 28 500 0 332 -1 351 -28 500 -62 349 -145 606
-292 905 -156 318 -346 584 -600 838 -252 253 -520 445 -840 602 -501 247
-977 346 -1565 324z m-363 -185 c-3 -3 -12 -4 -19 -1 -8 3 -5 6 6 6 11 1 17
-2 13 -5z m-147 -24 c0 -5 -8 -10 -17 -10 -15 0 -16 2 -3 10 19 12 20 12 20 0z
m-67 -35 c-19 -26 -63 -31 -70 -9 -2 7 6 10 23 6 18 -3 25 -1 20 6 -6 10 8 20
32 21 9 1 8 -6 -5 -24z m352 -15 c16 -13 16 -15 -4 -31 -39 -32 -23 -46 53
-48 22 0 44 -5 49 -10 12 -12 0 -31 -21 -31 -14 -1 -13 -4 5 -19 l23 -19 -45
-7 c-25 -3 -57 -13 -73 -21 -15 -7 -32 -14 -39 -14 -6 0 -15 -9 -18 -20 -4
-12 -15 -20 -28 -20 -12 0 -28 -9 -35 -20 -7 -11 -19 -20 -27 -20 -8 0 -15 -4
-15 -9 0 -6 -20 -13 -44 -16 -25 -4 -47 -13 -50 -21 -3 -8 -10 -14 -17 -14 -6
0 -20 -11 -31 -25 -21 -27 -44 -34 -35 -10 10 24 -9 26 -29 4 -11 -12 -18 -24
-16 -28 5 -12 -64 -23 -116 -18 -35 4 -67 0 -95 -10 -23 -8 -67 -15 -97 -15
-56 -1 -75 -8 -243 -95 -38 -19 -70 -33 -72 -31 -2 2 0 19 4 38 12 61 234 224
318 234 36 4 55 14 48 26 -8 12 11 21 46 22 16 1 35 8 42 17 7 10 32 25 57 34
88 34 155 72 165 94 11 27 88 49 156 44 26 -1 50 2 53 8 8 13 -36 25 -66 18
-13 -3 -40 -2 -60 1 -34 7 -36 8 -22 26 11 16 17 17 26 8 17 -17 48 -15 82 6
34 21 142 16 171 -8z m1329 -21 c278 -91 507 -202 746 -362 159 -106 280 -206
443 -366 124 -122 155 -158 193 -228 29 -54 51 -83 62 -83 10 0 32 -23 51 -52
19 -29 53 -75 76 -103 150 -179 341 -609 308 -695 -17 -45 15 -174 64 -255 54
-91 83 -195 83 -304 0 -73 -2 -82 -15 -71 -8 7 -15 19 -15 26 0 17 -35 54 -51
54 -8 0 -9 -18 -5 -57 6 -58 6 -58 -30 42 -19 55 -38 108 -41 118 -9 29 -33
20 -33 -12 0 -40 -18 -49 -26 -14 -12 58 -25 92 -40 103 -7 7 -14 18 -14 25 0
7 -11 20 -25 29 -14 9 -34 34 -45 56 -21 42 -40 52 -40 22 0 -10 -14 -34 -32
-55 -26 -30 -32 -46 -34 -89 -2 -59 -17 -148 -32 -200 -6 -18 -16 -52 -23 -75
-7 -24 -15 -43 -20 -43 -17 0 -16 -32 1 -90 15 -49 18 -86 16 -167 -2 -57 -8
-109 -14 -116 -5 -6 -12 -24 -16 -39 -9 -41 -32 -25 -56 40 -12 32 -33 74 -46
95 -14 22 -31 55 -39 76 -7 20 -24 54 -38 74 -26 38 -107 236 -107 261 0 24
-30 87 -39 81 -5 -3 -7 -14 -4 -25 5 -20 -20 -60 -38 -60 -4 0 -22 12 -39 26
-28 24 -30 28 -15 44 21 23 19 31 -8 25 -15 -4 -28 -1 -36 9 -8 9 -19 16 -26
16 -7 0 -29 16 -49 36 -24 24 -42 34 -54 31 -9 -3 -48 -17 -87 -31 -52 -19
-91 -26 -152 -27 -91 -1 -100 2 -113 37 -11 29 -33 31 -60 4 -11 -11 -33 -20
-49 -20 -34 0 -142 47 -154 67 -5 8 -22 30 -39 49 -36 41 -69 44 -97 8 l-21
-26 32 -44 c17 -25 47 -56 65 -70 18 -14 33 -33 33 -43 0 -10 8 -26 19 -35 18
-16 19 -16 25 11 6 21 9 24 17 12 5 -7 9 -26 9 -40 0 -43 21 -53 80 -38 47 12
53 17 77 66 28 55 43 67 43 34 0 -34 48 -81 83 -81 21 0 41 -10 63 -31 l33
-32 -16 -41 c-9 -22 -22 -48 -30 -57 -7 -8 -13 -32 -13 -52 0 -20 -5 -37 -11
-37 -5 0 -15 -13 -20 -30 -6 -16 -19 -32 -29 -35 -10 -3 -21 -17 -24 -30 -4
-14 -12 -25 -19 -25 -27 0 -107 -60 -107 -80 0 -14 -16 -28 -52 -48 -28 -15
-61 -36 -73 -47 -26 -23 -118 -75 -134 -75 -5 0 -27 -11 -47 -25 -39 -27 -82
-33 -88 -12 -2 6 -10 37 -19 67 -8 30 -18 72 -21 92 -4 21 -19 49 -35 66 -16
16 -43 52 -61 80 -17 28 -40 54 -50 57 -26 8 -60 53 -60 78 0 36 -41 107 -71
123 -16 8 -29 20 -29 28 0 7 -25 46 -55 87 -54 73 -92 101 -106 78 -10 -16
-26 -4 -56 44 -15 24 -28 36 -31 29 -2 -7 12 -38 32 -67 20 -30 36 -58 36 -63
0 -4 20 -40 45 -80 25 -40 45 -80 45 -90 0 -19 28 -54 55 -70 17 -9 44 -74 45
-108 0 -41 21 -79 53 -100 25 -16 39 -38 56 -83 20 -55 27 -64 69 -85 26 -14
71 -46 100 -72 41 -36 52 -52 48 -68 -6 -25 38 -76 66 -76 22 0 118 29 133 41
6 4 36 15 67 24 31 9 68 25 82 36 33 26 40 12 32 -63 -6 -53 -27 -109 -99
-273 -22 -50 -107 -162 -136 -179 -36 -22 -126 -115 -178 -184 -30 -40 -61
-76 -69 -79 -13 -5 -86 -131 -99 -173 -4 -14 -1 -28 10 -40 12 -14 16 -30 13
-57 -5 -42 7 -89 30 -115 12 -15 19 -125 13 -217 -2 -23 -60 -76 -107 -97 -29
-13 -67 -36 -86 -51 -18 -16 -52 -41 -75 -57 -48 -32 -49 -36 -28 -95 10 -28
12 -54 7 -78 -7 -33 -13 -39 -72 -62 -59 -24 -65 -29 -66 -57 -2 -39 -29 -91
-51 -98 -10 -4 -40 -28 -66 -55 -90 -91 -167 -119 -387 -139 -76 -7 -101 -6
-127 6 -18 8 -34 17 -34 21 -1 3 -2 18 -3 32 -2 28 -33 72 -108 150 -46 48
-84 126 -95 198 -4 19 -32 69 -65 115 -86 118 -98 138 -98 169 0 44 39 149 66
178 29 31 31 76 5 127 -13 26 -16 43 -10 54 7 12 -1 37 -26 91 -19 40 -35 78
-35 84 0 6 -33 48 -72 94 -88 101 -106 132 -89 153 12 14 28 83 38 161 4 35 1
45 -28 74 -31 33 -36 35 -102 35 l-70 1 -26 48 c-31 57 -41 64 -107 72 -36 4
-76 -1 -151 -21 l-103 -27 -60 23 c-61 23 -65 23 -181 4 -32 -5 -39 -2 -76 38
-164 176 -173 188 -173 235 0 15 -16 54 -35 86 -19 32 -35 64 -35 72 0 8 -6
18 -14 22 -24 14 -33 47 -31 109 1 38 8 70 18 85 10 13 17 28 17 34 0 6 9 27
20 48 16 29 21 61 24 145 3 107 3 108 41 157 21 28 46 56 56 63 10 7 28 30 40
52 13 22 30 42 39 45 9 3 26 19 38 35 13 17 32 30 43 30 52 0 134 65 145 114
11 49 61 105 119 131 31 13 63 37 80 59 29 38 45 46 45 21 0 -8 12 -17 28 -20
15 -3 41 -10 59 -16 22 -7 38 -7 51 0 62 33 244 63 273 46 17 -11 139 -13 168
-3 32 11 78 -17 61 -37 -8 -10 -8 -19 2 -34 11 -18 9 -24 -15 -49 -15 -15 -27
-32 -27 -38 1 -14 102 -74 126 -74 36 0 91 -28 97 -49 3 -11 18 -25 34 -32 15
-6 52 -22 80 -36 51 -24 54 -25 79 -9 20 14 24 23 20 44 -7 31 0 44 31 61 33
17 77 13 103 -9 13 -11 30 -20 39 -20 9 0 29 -7 45 -15 15 -8 31 -13 36 -10 4
2 40 -5 81 -17 l73 -20 43 23 c37 21 46 22 76 11 47 -17 81 -15 105 6 31 26
62 155 55 225 -5 52 -8 57 -30 57 -13 0 -41 -10 -63 -22 l-38 -23 -42 24 -41
23 -25 -23 c-24 -22 -25 -22 -53 -6 -16 9 -38 17 -48 17 -22 0 -58 63 -54 97
1 12 -5 26 -15 31 -11 6 -15 16 -10 27 10 27 -12 45 -55 45 -25 0 -41 -6 -47
-17 -6 -9 -16 -14 -25 -10 -9 3 -19 2 -22 -3 -8 -12 16 -63 37 -78 23 -17 23
-44 1 -40 -13 2 -21 -7 -28 -29 -10 -37 -14 -39 -40 -19 -11 8 -18 26 -18 45
0 17 -4 31 -8 31 -4 0 -21 21 -39 48 -22 33 -30 57 -28 79 3 38 -15 60 -89
109 -29 19 -60 48 -68 65 -9 16 -22 29 -29 29 -8 0 -16 9 -19 20 -4 16 -10 18
-29 11 -31 -11 -38 -69 -11 -88 10 -8 23 -28 29 -46 6 -18 23 -39 39 -47 31
-16 43 -25 95 -71 21 -18 26 -26 13 -20 -12 6 -28 11 -36 11 -20 0 -30 -29
-17 -46 8 -9 7 -19 -5 -38 -20 -31 -41 -35 -25 -6 6 12 8 31 4 43 -7 25 -65
82 -104 102 -35 18 -80 74 -87 108 -10 47 -42 54 -107 24 -53 -25 -57 -26 -92
-11 -44 18 -84 6 -84 -25 0 -27 -24 -48 -67 -60 -43 -12 -103 -67 -103 -94 0
-20 -28 -50 -71 -77 -13 -8 -53 -17 -89 -20 -36 -4 -72 -8 -80 -11 -9 -2 -16
4 -18 19 -4 24 -7 26 -55 36 -24 6 -27 10 -21 29 4 12 7 34 6 48 -1 16 9 40
26 62 16 19 37 63 47 96 13 45 24 63 39 67 12 3 64 -6 116 -19 67 -17 101 -22
113 -15 31 16 60 93 52 139 -7 40 -12 47 -49 73 -32 22 -10 37 45 30 46 -6 49
-5 49 16 0 19 2 21 15 10 20 -17 92 5 106 31 5 10 23 21 41 24 18 4 52 25 75
46 30 27 52 39 75 40 58 3 63 4 76 12 7 5 12 29 12 56 0 51 13 75 46 85 16 5
20 2 19 -12 0 -9 -5 -23 -9 -30 -4 -7 -5 -20 -2 -29 4 -11 2 -14 -9 -9 -22 8
-19 -27 3 -47 16 -14 23 -15 52 -4 26 9 34 9 37 0 6 -17 41 -16 93 2 31 11 47
12 62 4 15 -8 28 -7 54 6 29 13 34 21 34 50 0 63 18 79 60 53 17 -11 22 -10
30 2 13 20 12 26 -5 44 -30 30 -8 46 66 46 45 0 77 21 57 37 -10 9 -30 8 -79
-1 -89 -17 -109 -7 -109 51 0 40 5 49 48 89 44 41 46 45 29 58 -25 20 -56 8
-78 -28 -11 -17 -37 -42 -59 -55 -26 -17 -44 -36 -51 -59 -11 -32 -9 -37 12
-53 20 -15 21 -19 9 -34 -8 -10 -23 -21 -34 -25 -14 -5 -24 -22 -31 -51 -9
-36 -16 -44 -42 -51 -17 -4 -36 -15 -43 -23 -10 -12 -16 -13 -27 -3 -12 10
-17 9 -25 -5 -5 -10 -13 -15 -19 -12 -13 9 -11 25 4 25 35 1 40 15 26 84 -7
36 -15 66 -18 66 -4 0 -24 -9 -45 -21 -21 -11 -48 -19 -60 -17 -18 3 -21 9
-20 54 1 28 7 60 13 73 11 19 100 71 124 71 26 0 177 139 177 164 0 10 6 13
16 9 9 -3 23 3 35 16 11 11 31 21 45 21 14 0 34 5 45 11 43 23 148 22 134 -2
-4 -5 2 -9 11 -9 10 0 31 -4 48 -9 17 -5 63 -19 103 -30 71 -21 88 -36 73 -61
-6 -9 -26 -11 -74 -8 -36 3 -66 2 -66 -3 0 -5 5 -9 11 -9 5 0 15 -13 20 -29
10 -27 44 -51 74 -51 20 0 19 10 -2 26 -16 11 -13 12 21 7 35 -5 39 -4 32 12
-8 22 19 55 46 55 22 0 23 13 2 45 -16 24 -15 25 6 25 16 0 20 -4 15 -19 -4
-14 0 -21 14 -26 24 -7 41 1 41 20 0 19 58 58 76 51 9 -3 25 1 37 9 12 8 32
15 44 15 26 0 29 10 11 29 -11 11 -1 13 60 8 72 -6 99 6 42 18 -17 4 -45 24
-65 48 -68 79 -36 77 86 -5 60 -41 96 -73 103 -90 13 -34 36 -37 36 -5 0 25
-50 77 -73 77 -7 0 -28 11 -47 25 -19 14 -40 25 -47 25 -7 0 -13 5 -13 10 0 6
7 10 16 10 10 0 14 6 10 15 -3 8 -1 15 4 15 19 0 10 18 -12 23 -19 5 -20 8 -8
23 13 14 11 19 -13 36 -20 15 -27 28 -27 53 0 21 -6 35 -17 39 -14 6 -14 8 3
21 28 21 55 18 120 -15 65 -33 74 -36 56 -18 -9 9 -8 16 6 31 16 18 16 20 -3
34 -19 14 -17 14 23 8 23 -4 42 -3 42 2 0 13 -63 50 -97 57 -17 4 -39 16 -49
27 -18 20 -18 20 11 13 17 -3 83 -24 149 -45z m-1667 -4 c-30 -27 -47 -32 -47
-15 0 6 15 17 33 25 44 20 46 18 14 -10z m-182 -5 c-3 -5 -10 -10 -16 -10 -5
0 -9 5 -9 10 0 6 7 10 16 10 8 0 12 -4 9 -10z m-45 -4 c0 -3 -20 -15 -45 -27
-24 -12 -42 -26 -39 -31 3 -4 -1 -10 -8 -12 -7 -2 -30 -9 -52 -16 -21 -7 -52
-13 -70 -14 -17 -2 -39 -6 -48 -10 -12 -5 -18 -4 -18 3 0 13 27 26 160 77 78
30 120 40 120 30z m120 -16 c-6 -11 -23 -23 -38 -27 -15 -3 -56 -24 -91 -45
-35 -22 -86 -48 -114 -59 -28 -11 -72 -38 -98 -60 -47 -39 -96 -56 -69 -24 23
28 -12 17 -64 -20 -51 -36 -111 -50 -86 -20 7 8 30 25 51 37 21 12 41 30 45
40 3 12 14 18 27 17 43 -4 109 14 120 32 7 11 20 19 30 19 23 0 94 36 104 54
15 26 123 72 176 75 15 1 16 -2 7 -19z m1327 -56 c-3 -3 -12 -4 -19 -1 -8 3
-5 6 6 6 11 1 17 -2 13 -5z m40 0 c-3 -3 -12 -4 -19 -1 -8 3 -5 6 6 6 11 1 17
-2 13 -5z m-527 -114 c0 -5 -11 -10 -25 -10 -14 0 -25 5 -25 10 0 6 11 10 25
10 14 0 25 -4 25 -10z m-61 -14 c9 -6 5 -16 -15 -37 -31 -32 -39 -29 -48 17
-7 30 -6 32 22 29 16 -1 34 -5 41 -9z m528 -48 c-20 -42 -8 -106 22 -127 33
-22 24 -31 -16 -17 -34 11 -38 17 -50 67 -6 30 -12 55 -13 57 -1 7 64 61 68
57 3 -2 -2 -19 -11 -37z m-1877 13 c0 -8 -72 -63 -149 -114 -39 -25 -49 -44
-26 -49 11 -2 -1 -16 -36 -43 -99 -77 -112 -89 -125 -122 -8 -18 -18 -33 -23
-33 -6 0 -13 -9 -16 -20 -11 -35 -71 -72 -120 -76 -39 -2 -45 0 -45 17 0 27
-23 33 -57 15 -15 -8 -22 -15 -15 -16 20 0 14 -29 -10 -41 -33 -17 -78 -66
-78 -84 0 -8 -5 -15 -11 -15 -6 0 -9 -9 -6 -20 4 -15 -1 -22 -18 -26 -13 -3
-32 -4 -42 -2 -15 4 -14 7 10 18 35 17 34 30 -3 30 -20 0 -43 -12 -70 -36 -22
-20 -43 -34 -47 -30 -15 15 421 426 453 426 4 0 28 13 54 30 25 16 65 36 88
44 23 8 63 30 89 47 34 24 182 104 201 108 1 1 2 -3 2 -8z m1385 -1 c3 -5 1
-10 -4 -10 -6 0 -11 5 -11 10 0 6 2 10 4 10 3 0 8 -4 11 -10z m-875 -262 c0
-9 17 -13 53 -13 45 -1 52 -3 55 -21 4 -26 -33 -44 -104 -51 -61 -7 -73 9 -46
62 17 34 42 47 42 23z m-1048 -260 c-7 -7 -12 -21 -12 -31 0 -11 -16 -37 -35
-58 -32 -35 -35 -37 -35 -17 0 13 -3 32 -6 43 -4 15 5 26 38 47 46 28 70 36
50 16z m1190 -90 c-18 -18 -15 -28 10 -28 21 0 21 -1 -7 -30 -21 -22 -25 -33
-17 -42 6 -7 14 -41 18 -76 4 -42 11 -62 20 -62 21 0 17 -28 -6 -40 -11 -6
-20 -17 -20 -25 0 -13 -17 -15 -92 -14 -79 2 -89 4 -73 16 11 7 26 13 34 13
13 1 12 4 -4 16 -19 14 -19 16 -2 25 9 6 17 17 17 24 0 8 8 15 18 15 10 0 23
5 30 12 17 17 15 57 -3 64 -8 4 -12 11 -8 17 4 6 6 24 5 40 -3 32 44 87 74 87
14 0 15 -3 6 -12z m-132 -128 c0 -10 -6 -23 -14 -27 -7 -4 -20 -21 -28 -37
-12 -22 -27 -32 -64 -42 -60 -15 -82 -2 -44 26 14 10 26 25 26 32 1 7 2 19 3
26 0 6 12 12 25 12 13 0 29 7 36 15 19 23 60 19 60 -5z m310 -624 c0 -8 -4
-18 -10 -21 -5 -3 -10 3 -10 14 0 12 5 21 10 21 6 0 10 -6 10 -14z m-8 -68 c9
-24 -12 -76 -32 -81 -18 -5 -19 -2 -13 36 7 50 34 76 45 45z m210 -175 c-3
-14 -10 -27 -17 -29 -13 -5 -85 33 -85 46 0 4 24 7 53 7 51 0 53 -1 49 -24z
m788 -128 c-14 -16 -50 -21 -50 -6 0 11 18 19 44 20 15 1 16 -2 6 -14z m-358
-7 c-9 -9 -15 -9 -24 0 -9 9 -7 12 12 12 19 0 21 -3 12 -12z m-3041 -783 c9
-16 20 -45 24 -63 12 -57 22 -245 15 -278 -6 -25 -3 -35 11 -48 11 -9 19 -25
19 -36 0 -11 6 -23 14 -26 14 -5 51 -82 61 -126 3 -16 9 -28 14 -28 20 0 94
-88 123 -144 16 -32 41 -69 55 -82 18 -17 31 -46 44 -100 l18 -77 -32 -96 -33
-96 23 -85 c12 -47 22 -98 22 -113 1 -16 5 -36 10 -45 4 -9 11 -43 15 -74 6
-56 6 -57 -21 -60 -24 -3 -28 -7 -26 -33 2 -29 1 -29 -13 -10 -57 76 -203 407
-263 596 -109 344 -156 728 -132 1092 16 263 25 293 31 112 4 -112 9 -158 21
-180z m5909 61 c0 -10 11 -31 24 -47 18 -21 25 -45 31 -101 3 -40 9 -81 11
-90 3 -10 1 -18 -4 -18 -10 0 -27 55 -42 140 -6 30 -19 72 -30 93 -11 20 -20
50 -20 65 l1 27 14 -25 c8 -14 14 -33 15 -44z m-4 -218 c9 -18 27 -46 40 -61
16 -19 24 -41 24 -67 0 -21 5 -42 10 -45 11 -7 12 -81 1 -165 l-7 -55 -11 55
c-6 30 -18 93 -27 138 -9 46 -30 113 -48 149 -26 54 -29 66 -17 74 8 5 15 9
16 9 1 0 10 -15 19 -32z m-375 -79 c10 -32 9 -42 -5 -65 -26 -39 -38 -18 -43
73 l-4 78 20 -23 c12 -13 26 -41 32 -63z m-1261 -1355 c16 -41 13 -114 -5
-114 -9 0 -15 -9 -15 -23 0 -13 -4 -27 -9 -32 -5 -6 -13 -24 -18 -40 -4 -17
-41 -95 -82 -173 -65 -127 -77 -144 -110 -158 -75 -33 -105 -18 -114 57 -6 42
-3 50 32 97 35 46 38 55 34 96 -3 26 0 57 8 74 12 28 63 62 92 62 17 0 97 72
97 87 0 7 11 20 25 29 14 9 25 24 25 33 0 38 27 41 40 5z"/>
<path d="M4133 7459 c14 -8 22 -8 30 0 8 8 3 11 -18 11 -26 -1 -28 -2 -12 -11z"/>
<path d="M6368 6905 c13 -25 72 -82 72 -69 -1 12 -18 33 -54 64 -24 21 -27 22
-18 5z"/>
<path d="M6295 6329 c-4 -6 -5 -13 -2 -16 7 -7 27 6 27 18 0 12 -17 12 -25 -2z"/>
<path d="M6227 6309 c-21 -12 -22 -52 -2 -69 13 -11 15 -7 15 23 0 19 5 37 12
39 7 3 8 7 2 10 -5 4 -17 2 -27 -3z"/>
<path d="M5840 6180 c0 -5 4 -10 9 -10 6 0 13 5 16 10 3 6 -1 10 -9 10 -9 0
-16 -4 -16 -10z"/>
<path d="M5531 6144 c-76 -54 -107 -117 -71 -149 11 -10 20 -23 20 -30 0 -7
28 -38 62 -71 61 -58 61 -59 59 -111 -3 -62 11 -93 43 -93 13 0 30 -7 37 -16
17 -20 93 -14 117 9 22 23 0 92 -44 134 -38 36 -43 53 -15 53 31 0 35 19 10
46 -17 18 -30 23 -46 19 -16 -4 -23 -1 -23 9 0 7 -13 19 -29 26 -16 6 -39 22
-50 34 -18 19 -20 28 -12 49 6 15 17 27 26 27 19 0 21 53 3 68 -18 14 -64 12
-87 -4z"/>
<path d="M5824 6149 c-3 -6 -1 -16 5 -22 14 -14 15 -30 1 -22 -5 3 -10 0 -10
-8 0 -17 45 -38 65 -31 23 9 18 38 -13 67 -31 30 -38 32 -48 16z"/>
<path d="M5060 6091 c-56 -23 -70 -43 -48 -68 16 -17 15 -19 -11 -34 -26 -15
-29 -15 -48 7 -12 13 -17 26 -12 30 17 10 9 24 -15 24 -14 0 -28 5 -31 10 -12
19 -41 10 -63 -20 -12 -16 -22 -33 -22 -37 0 -5 -9 -16 -20 -26 -11 -9 -20
-28 -20 -41 0 -13 -4 -26 -9 -28 -5 -1 -12 -14 -16 -28 -5 -19 0 -33 19 -53
l25 -27 -23 0 c-25 0 -51 -22 -39 -33 18 -18 83 -3 83 19 0 9 12 14 38 14 21
0 54 11 77 25 49 30 83 31 159 5 95 -34 206 -15 206 35 0 11 -4 25 -8 31 -7
11 -79 53 -147 87 -22 11 -41 21 -43 22 -2 2 4 15 14 29 9 15 14 29 10 33 -3
4 1 15 11 25 15 17 15 18 -3 17 -10 0 -39 -8 -64 -18z"/>
<path d="M5064 3683 c-35 -7 -52 -34 -56 -88 l-3 -50 48 -3 c38 -3 48 0 53 15
4 10 15 36 25 57 29 62 8 84 -67 69z"/>
<path d="M4871 3419 c2 -53 21 -109 37 -109 5 0 16 -16 25 -35 15 -31 37 -48
37 -27 -1 22 -30 87 -44 97 -9 7 -16 25 -17 41 -1 43 -13 77 -27 82 -10 3 -13
-10 -11 -49z"/>
<path d="M5126 3133 c1 -43 2 -85 3 -94 2 -25 27 -53 40 -45 9 6 9 11 0 22 -7
8 -9 30 -6 53 5 41 -14 133 -29 138 -6 2 -9 -29 -8 -74z"/>
<path d="M1632 7687 c-12 -13 -22 -28 -22 -33 0 -5 43 -52 95 -104 52 -52 95
-97 95 -100 0 -3 -82 2 -182 12 -167 15 -184 15 -200 1 -24 -21 -23 -35 5 -57
29 -25 180 -160 235 -211 55 -50 56 -51 82 -23 l21 23 -48 45 c-26 25 -74 69
-107 98 -32 29 -57 54 -55 56 2 2 54 -2 114 -9 233 -27 251 -28 269 -10 22 22
19 26 -142 193 l-137 143 -23 -24z"/>
<path d="M7554 7543 c-26 -48 -73 -136 -106 -195 -32 -59 -58 -111 -58 -116 0
-4 10 -18 23 -29 l22 -20 144 64 c79 35 145 62 147 60 2 -2 -9 -24 -25 -48
-16 -24 -54 -84 -85 -133 -51 -81 -55 -92 -42 -110 7 -12 20 -22 29 -24 9 -2
104 29 211 69 108 40 199 70 202 67 3 -4 -21 -66 -53 -138 -45 -103 -65 -138
-90 -156 -18 -13 -49 -36 -68 -50 l-35 -25 17 -30 c20 -34 23 -33 103 21 l59
40 150 0 c83 0 151 3 151 8 0 4 -9 22 -20 40 -22 36 -36 38 -177 23 -40 -4
-73 -5 -73 -4 0 2 23 49 51 104 49 99 50 101 33 127 -33 53 -86 112 -99 112
-7 0 -64 -21 -127 -46 -171 -69 -160 -66 -152 -51 4 6 41 65 81 129 40 65 73
124 73 131 0 22 -37 49 -57 43 -10 -3 -74 -30 -143 -60 -68 -30 -126 -54 -127
-52 -2 2 31 59 72 128 41 69 75 132 75 140 0 8 -13 27 -29 42 l-29 28 -48 -89z"/>
<path d="M1217 7224 c-11 -14 -17 -33 -15 -42 7 -24 237 -372 247 -372 4 0 14
12 21 26 12 21 12 29 0 47 -48 77 -49 68 7 138 28 35 56 63 62 61 7 -1 32 -8
57 -14 43 -12 46 -11 64 12 10 14 16 28 12 32 -10 9 -404 138 -422 138 -8 0
-23 -12 -33 -26z m180 -88 c35 -12 65 -25 65 -30 1 -10 -64 -96 -72 -96 -7 0
-100 144 -100 154 0 8 5 6 107 -28z"/>
<path d="M1041 6971 c-12 -16 -21 -32 -21 -35 0 -3 33 -26 73 -52 39 -25 74
-48 75 -49 7 -6 -100 -165 -110 -165 -5 0 -40 18 -77 40 -37 22 -72 40 -77 40
-6 0 -18 -15 -26 -34 l-17 -34 147 -83 c81 -46 163 -93 182 -106 19 -13 38
-23 42 -23 7 0 38 52 38 63 0 2 -34 24 -75 48 -41 24 -75 49 -75 54 0 6 23 45
51 88 49 74 52 77 73 64 11 -8 47 -30 78 -50 l57 -37 20 29 c12 16 21 32 21
35 0 3 -30 25 -67 49 -130 84 -208 134 -250 160 l-42 27 -20 -29z"/>
<path d="M1510 1933 c-85 -74 -157 -140 -158 -144 -2 -5 8 -23 22 -40 l26 -30
154 143 c85 79 155 148 155 154 1 6 -9 20 -22 32 l-22 21 -155 -136z"/>
<path d="M7347 1872 c-48 -48 -87 -92 -86 -97 0 -6 65 -77 144 -160 l145 -150
102 103 103 103 -25 19 -25 19 -70 -70 -71 -69 -37 38 c-20 21 -37 42 -37 47
0 5 21 30 46 56 47 48 53 73 18 86 -10 4 -31 -10 -63 -41 -26 -25 -51 -46 -57
-46 -13 0 -74 63 -74 76 0 5 27 36 60 69 33 33 60 62 60 66 0 4 -11 14 -23 22
-23 15 -26 13 -110 -71z"/>
<path d="M1628 1795 c-82 -80 -148 -148 -148 -153 0 -5 9 -17 19 -26 19 -17
21 -17 55 9 19 14 36 30 38 33 2 4 35 37 74 74 l70 68 -12 -118 c-28 -253 -28
-261 -9 -282 10 -11 22 -20 26 -20 4 0 54 53 111 117 57 65 117 133 133 151
46 51 48 58 20 76 -24 16 -25 15 -93 -56 -38 -40 -84 -89 -101 -108 l-33 -35
6 45 c42 348 40 328 21 350 -10 11 -21 20 -24 20 -3 -1 -72 -66 -153 -145z"/>
<path d="M2048 1637 c-16 -21 -15 -23 30 -63 l46 -41 -99 -124 c-54 -68 -105
-132 -114 -142 -14 -17 -13 -20 14 -42 17 -13 33 -24 36 -25 3 0 54 63 113
140 60 77 110 140 113 140 2 0 24 -13 48 -30 24 -16 48 -30 54 -30 9 0 31 31
31 44 0 8 -238 196 -247 196 -5 -1 -15 -11 -25 -23z"/>
<path d="M7129 1641 c-42 -14 -71 -32 -142 -89 -62 -49 -67 -56 -55 -73 85
-124 236 -318 248 -318 24 -1 173 131 197 174 56 99 10 230 -99 286 -44 23
-112 32 -149 20z m84 -75 c74 -30 128 -127 107 -191 -12 -36 -95 -118 -114
-112 -6 2 -51 54 -100 117 l-90 113 30 24 c31 27 101 62 122 63 7 0 27 -6 45
-14z"/>
<path d="M2348 1398 c-88 -118 -218 -307 -218 -316 0 -9 229 -167 234 -160 6
6 26 47 26 52 0 2 -34 26 -75 51 -41 26 -78 51 -81 56 -5 9 52 99 63 99 4 0
31 -17 60 -37 43 -29 58 -35 71 -27 32 21 24 40 -33 77 -30 21 -55 42 -55 48
0 14 53 89 62 89 4 0 38 -20 74 -45 37 -25 71 -44 77 -42 6 2 16 12 24 23 12
19 8 24 -69 76 -153 101 -133 94 -160 56z"/>
<path d="M6708 1351 l-25 -20 39 -222 c21 -123 36 -224 34 -226 -3 -4 -196 86
-196 91 0 2 7 17 15 32 19 37 19 68 -1 110 -37 78 -106 85 -232 24 -76 -36
-81 -41 -73 -62 10 -27 171 -361 176 -366 3 -3 63 25 73 33 1 1 -13 34 -33 73
-19 39 -35 74 -35 76 0 3 10 10 21 17 18 9 35 4 113 -37 l92 -48 78 45 78 44
-7 61 -6 61 76 48 76 47 46 -30 c48 -32 54 -31 98 3 19 15 19 16 -5 33 -71 51
-356 232 -366 232 -6 0 -22 -9 -36 -19z m132 -123 c39 -29 70 -56 70 -59 0 -7
-92 -69 -103 -69 -3 0 -13 33 -22 73 -9 39 -18 80 -21 90 -8 25 0 22 76 -35z
m-354 -126 c6 -4 17 -18 23 -30 19 -35 -3 -78 -50 -103 l-39 -19 -30 60 c-16
33 -30 62 -30 64 0 3 12 12 28 20 29 16 80 20 98 8z"/>
<path d="M2637 1228 c-51 -82 -197 -339 -197 -347 0 -10 44 -41 59 -41 5 0 26
30 47 68 20 37 38 69 40 71 2 2 14 -3 27 -12 20 -13 26 -28 31 -79 15 -135 16
-137 56 -158 21 -11 40 -17 42 -15 3 3 -3 52 -12 109 l-16 105 38 6 c80 14
128 100 95 170 -17 36 -53 66 -139 114 l-57 32 -14 -23z m100 -97 c52 -33 56
-95 8 -127 -24 -15 -29 -15 -70 1 -25 9 -47 21 -51 26 -7 12 54 119 69 119 7
0 26 -9 44 -19z"/>
<path d="M2971 1062 c-26 -51 -172 -374 -169 -377 10 -8 48 -25 57 -25 6 0 18
17 26 38 67 158 99 223 106 211 4 -8 28 -87 55 -177 43 -149 50 -165 77 -178
16 -9 30 -14 32 -12 12 14 143 404 137 410 -4 3 -18 9 -32 13 -24 5 -27 1 -74
-130 -28 -74 -53 -132 -56 -128 -3 5 -21 62 -39 128 -18 66 -40 143 -47 171
-11 37 -21 54 -39 62 -20 9 -26 8 -34 -6z"/>
<path d="M6048 1012 c-76 -31 -138 -59 -138 -63 0 -4 4 -19 10 -33 l9 -26 56
22 c33 12 59 17 64 12 5 -5 36 -79 70 -164 35 -85 64 -157 66 -159 4 -3 62 17
73 25 2 1 -26 74 -62 161 -36 87 -66 165 -66 172 0 6 23 21 50 33 51 21 62 42
38 66 -17 17 -18 17 -170 -46z"/>
<path d="M3398 768 c-51 -62 -117 -142 -146 -178 l-52 -65 35 -12 c45 -15 54
-12 88 37 l27 39 73 -21 c39 -11 80 -23 89 -25 12 -4 20 -20 24 -53 8 -62 14
-70 58 -77 38 -6 38 -6 32 23 -3 16 -17 119 -32 229 -14 110 -27 201 -27 202
-1 0 -18 4 -38 8 l-37 7 -94 -114z m121 -121 c1 -42 -1 -48 -16 -43 -10 2 -37
10 -60 17 -24 7 -43 16 -43 21 0 5 24 40 53 79 l52 70 7 -48 c3 -26 7 -70 7
-96z"/>
<path d="M5580 850 c-13 -8 -8 -37 34 -207 27 -109 52 -202 56 -206 7 -8 237
56 250 70 11 11 -7 53 -22 53 -7 0 -42 -9 -78 -20 -36 -11 -70 -20 -76 -20 -6
0 -32 77 -59 170 -42 152 -50 170 -69 170 -11 0 -28 -5 -36 -10z"/>
<path d="M3726 793 c-9 -32 2 -39 66 -48 27 -4 48 -12 48 -19 0 -6 -13 -81
-30 -166 -16 -85 -30 -162 -30 -171 0 -11 12 -19 36 -24 20 -3 38 -4 41 -2 2
3 17 82 33 177 15 94 30 173 32 175 2 3 29 1 59 -4 29 -5 57 -7 62 -4 4 2 7
17 7 32 l0 28 -148 26 c-81 15 -153 27 -159 27 -6 0 -14 -12 -17 -27z"/>
<path d="M5309 793 c-25 -4 -27 -11 -72 -211 -26 -114 -50 -217 -53 -230 -6
-21 -4 -22 22 -17 62 14 64 16 70 55 4 22 12 46 18 54 6 8 47 21 90 30 87 18
92 16 127 -40 22 -35 40 -41 83 -24 l26 10 -64 92 c-35 51 -93 136 -128 188
-65 96 -72 101 -119 93z m82 -170 l48 -78 -47 -12 c-94 -23 -90 -27 -73 82 8
52 17 93 19 90 2 -2 26 -39 53 -82z"/>
<path d="M4106 737 c-3 -12 -15 -107 -27 -210 -25 -206 -24 -207 32 -207 23 0
27 5 32 38 12 85 40 382 36 385 -2 2 -19 7 -36 10 -28 6 -33 3 -37 -16z"/>
<path d="M5020 718 c1 -18 7 -84 13 -145 7 -62 10 -113 7 -112 -3 0 -59 61
-125 134 -98 109 -125 134 -148 134 l-28 1 3 -142 c1 -79 4 -176 6 -215 l4
-73 38 0 c34 0 38 2 35 23 -2 12 -6 78 -9 147 l-6 125 132 -138 c109 -113 138
-138 161 -137 34 0 34 -1 7 219 -28 221 -25 211 -60 211 -27 0 -30 -3 -30 -32z"/>
<path d="M4352 709 c-102 -52 -147 -208 -90 -311 61 -110 229 -141 336 -61
109 81 100 276 -17 358 -36 25 -53 30 -114 33 -58 2 -80 -1 -115 -19z m185
-69 c52 -33 71 -155 33 -217 -50 -82 -180 -83 -230 -1 -36 59 -22 167 28 212
40 35 117 38 169 6z"/>
</g>
</svg>
